<?xml version="1.0" standalone="no"?>
<!DOCTYPE svg PUBLIC "-//W3C//DTD SVG 20010904//EN"
 "http://www.w3.org/TR/2001/REC-SVG-20010904/DTD/svg10.dtd">
<svg version="1.0" xmlns="http://www.w3.org/2000/svg"
 width="1024.000000pt" height="1024.000000pt" viewBox="0 0 1024.000000 1024.000000"
 preserveAspectRatio="xMidYMid meet">
<metadata>
Created by potrace 1.16, written by Peter Selinger 2001-2019
</metadata>
<g transform="translate(0.000000,1024.000000) scale(0.100000,-0.100000)"
fill="#000000" stroke="none">
<path d="M4910 10058 c-911 -36 -1818 -361 -2554 -916 -1057 -796 -1717 -1993
-1826 -3312 -14 -174 -14 -567 0 -740 66 -808 338 -1569 797 -2238 268 -390
635 -773 1020 -1065 125 -95 355 -246 498 -328 119 -68 408 -210 520 -255 69
-27 71 -29 133 -123 277 -422 729 -710 1287 -818 73 -15 143 -18 375 -18 272
1 291 2 413 28 550 118 1004 426 1266 859 l46 77 95 41 c237 104 548 280 771
436 993 696 1677 1756 1893 2934 51 278 56 342 56 840 0 456 -1 482 -25 649
-72 489 -200 914 -409 1346 -440 911 -1160 1648 -2058 2108 -705 361 -1479
528 -2298 495z m555 -363 c189 -11 255 -43 255 -122 0 -53 -26 -91 -92 -133
-61 -39 -62 -39 -32 -45 144 -31 235 -135 204 -231 -27 -82 -150 -148 -275
-147 -89 0 -275 33 -275 49 0 7 7 46 16 86 39 185 66 474 46 504 -4 6 -17 15
-30 18 -19 6 -21 10 -11 23 9 10 24 13 49 10 19 -3 85 -9 145 -12z m-933 -62
c14 -16 61 -89 103 -163 79 -136 175 -283 219 -332 13 -14 38 -33 55 -42 17
-9 31 -20 31 -25 0 -4 -33 -14 -73 -21 -108 -18 -125 -7 -226 145 -36 55 -69
104 -72 109 -4 4 -48 2 -99 -5 -109 -16 -110 -16 -142 -142 -30 -116 -28 -120
97 -142 l40 -7 -82 -23 c-44 -12 -116 -26 -159 -30 l-78 -7 30 25 c16 14 42
49 56 79 27 57 155 454 165 512 5 33 4 35 -28 38 -72 7 -32 37 66 51 62 8 72
6 97 -20z m2143 -194 c135 -41 242 -145 266 -256 29 -141 -68 -300 -228 -375
-57 -27 -78 -32 -142 -31 -126 1 -243 53 -324 143 -60 66 -81 130 -75 224 6
86 26 131 89 200 108 119 240 149 414 95z m-3139 -115 c77 -37 101 -143 54
-243 l-24 -53 29 -22 c16 -11 70 -47 119 -78 74 -48 97 -58 134 -58 58 0 52
-17 -19 -52 -88 -45 -136 -37 -241 38 -80 57 -127 76 -165 69 -32 -6 -34 -9
-28 -32 3 -14 23 -60 43 -102 39 -79 35 -76 107 -80 17 -1 16 -4 -9 -20 -16
-11 -50 -27 -75 -37 -25 -10 -67 -30 -92 -46 -57 -35 -66 -35 -40 -2 12 15 21
33 21 41 0 32 -111 326 -161 425 -40 80 -56 98 -87 98 -22 0 -23 2 -11 17 15
17 219 117 284 139 55 18 121 17 161 -2z m4029 -357 c165 -116 215 -174 215
-252 0 -91 -91 -165 -201 -165 -21 0 -40 -3 -43 -8 -2 -4 -8 -72 -12 -150 -7
-137 -6 -145 15 -172 11 -16 21 -32 21 -35 0 -14 -36 -1 -84 31 -80 53 -87 73
-79 237 6 134 6 138 -17 162 -13 14 -26 25 -30 25 -9 0 -117 -143 -124 -166
-3 -11 0 -28 9 -40 26 -35 17 -46 -18 -22 -38 26 -145 97 -173 115 -17 10 -13
12 23 12 41 1 44 3 147 126 129 151 225 281 233 314 3 13 1 32 -6 42 -27 45 0
32 124 -54z m-4825 11 c0 -6 10 -31 21 -56 16 -32 19 -46 10 -55 -8 -8 -14 -8
-23 1 -7 7 -21 12 -32 12 -22 0 -146 -79 -146 -93 0 -29 294 -419 325 -430 7
-3 29 3 48 13 34 19 35 19 30 -1 -3 -11 -22 -32 -42 -47 -20 -14 -58 -45 -86
-67 -76 -63 -79 -64 -71 -23 5 30 -1 44 -53 124 -77 115 -231 314 -253 328
-27 16 -126 -85 -135 -137 -10 -62 -25 -58 -50 13 -24 67 -21 73 95 156 113
82 268 203 316 247 31 29 46 34 46 15z m2835 -213 c694 -96 1321 -393 1837
-869 187 -172 415 -449 558 -678 86 -139 204 -374 267 -533 76 -195 76 -177 3
-173 l-62 3 -48 120 c-190 480 -490 906 -874 1241 -473 413 -1025 669 -1651
764 -179 28 -574 38 -762 21 -523 -49 -1031 -228 -1468 -515 -186 -123 -333
-244 -505 -416 -329 -329 -559 -679 -725 -1104 l-44 -111 -60 -3 c-40 -2 -61
1 -61 8 0 27 118 307 186 440 499 987 1458 1667 2544 1804 190 24 187 24 475
21 183 -2 309 -8 390 -20z m10 -193 c489 -76 919 -243 1315 -512 206 -141 363
-277 547 -475 270 -289 492 -647 628 -1008 l25 -68 -66 3 -65 3 -30 75 c-93
238 -303 591 -469 790 -111 134 -304 323 -440 433 -433 350 -934 563 -1510
644 -174 24 -595 24 -765 0 -587 -84 -1069 -291 -1525 -656 -121 -97 -332
-308 -431 -431 -196 -244 -378 -555 -474 -812 l-18 -48 -64 0 c-75 0 -73 -10
-18 125 189 457 471 857 825 1169 509 448 1104 711 1780 785 147 16 606 6 755
-17z m2764 -277 l70 -86 -14 -39 c-25 -72 -66 -272 -89 -436 -20 -143 -20
-162 -7 -154 27 15 296 231 299 240 2 5 -9 25 -23 45 -15 19 -23 35 -18 35 15
0 96 -55 119 -81 23 -26 94 -134 94 -144 0 -9 -55 22 -69 39 -26 31 -14 37
-391 -197 -97 -61 -158 -93 -164 -87 -6 6 8 136 38 351 26 187 46 342 44 345
-7 6 -213 -143 -270 -196 l-51 -46 23 -42 c16 -29 21 -45 14 -52 -14 -14 -124
101 -154 159 l-22 44 24 -8 c55 -17 77 -16 118 5 77 39 339 220 351 242 7 13
9 46 6 85 -2 34 -3 63 -2 63 2 0 35 -38 74 -85z m-3246 -72 c6 -11 -21 -73
-32 -73 -5 0 -14 7 -21 15 -8 10 -31 15 -66 15 l-54 0 0 -86 0 -87 80 6 c44 4
80 4 80 0 0 -3 -5 -23 -12 -44 -12 -42 -32 -51 -41 -19 -4 17 -14 20 -56 20
l-51 0 0 -39 c0 -81 12 -131 31 -131 24 0 35 -20 18 -31 -8 -5 -41 -9 -74 -9
l-60 0 0 194 c0 177 -2 196 -19 215 -12 13 -16 25 -10 31 5 5 65 13 134 18 69
5 130 10 137 11 6 0 14 -2 16 -6z m-3171 -35 c12 -18 33 -42 45 -54 29 -27 21
-35 -32 -28 -28 4 -51 1 -72 -9 -41 -22 -88 -78 -103 -122 -11 -33 -10 -40 7
-64 11 -14 34 -30 52 -35 29 -8 46 -2 164 58 169 85 217 87 288 9 40 -43 49
-66 49 -130 0 -83 -36 -149 -132 -247 l-79 -80 -49 49 c-28 27 -50 53 -50 58
0 4 20 5 45 2 37 -6 52 -3 88 18 99 59 149 152 109 206 -49 67 -106 63 -243
-15 -122 -69 -151 -78 -207 -63 -54 15 -93 62 -99 123 -6 47 17 139 45 185 23
37 135 171 144 171 4 0 17 -15 30 -32z m3608 2 c160 -17 156 -15 116 -65 l-24
-30 -18 22 c-13 15 -35 24 -70 29 l-51 6 -15 -78 c-12 -59 -13 -81 -5 -86 13
-8 65 -13 109 -10 36 3 42 -11 20 -49 -21 -39 -42 -49 -42 -21 0 16 -11 23
-51 32 -27 7 -51 11 -53 9 -2 -2 -8 -38 -14 -79 -11 -70 -10 -76 8 -89 28 -19
26 -45 -2 -38 -13 3 -45 9 -71 13 -44 6 -48 9 -42 28 4 11 21 99 38 194 25
142 29 177 19 193 -15 24 -7 42 16 35 10 -2 69 -10 132 -16z m-1093 -91 c50
-16 99 -78 113 -142 35 -171 -89 -316 -274 -318 -74 -1 -140 31 -180 89 -24
34 -31 56 -34 106 -5 79 10 127 56 178 79 88 204 121 319 87z m1793 -114 c17
-10 11 -23 -21 -45 l-30 -22 -6 21 c-6 22 -69 61 -98 61 -18 0 -79 -120 -67
-131 11 -10 103 -39 123 -39 31 0 33 -21 5 -49 l-27 -26 -17 21 c-19 24 -72
54 -95 54 -17 0 -71 -126 -63 -146 7 -18 90 -52 147 -60 28 -4 49 -12 49 -19
0 -15 -70 -66 -82 -59 -4 3 -8 12 -8 20 0 16 -33 32 -158 79 -40 15 -72 30
-70 34 2 3 20 38 40 78 37 71 62 130 98 230 18 50 18 52 -1 69 -40 36 -3 32
132 -16 76 -27 144 -52 149 -55z m-2470 -172 c0 -21 3 -48 6 -60 7 -27 -10
-31 -32 -8 -52 52 -224 -44 -224 -125 0 -84 83 -158 190 -167 51 -5 67 -2 114
21 31 15 64 38 75 52 23 29 41 31 41 4 0 -11 -28 -48 -62 -83 -95 -97 -184
-120 -283 -73 -54 25 -100 71 -122 123 -49 118 44 264 213 332 74 30 84 28 84
-16z m2895 -62 c65 -43 121 -83 123 -89 4 -13 -55 -45 -68 -37 -5 3 -7 12 -4
19 3 8 -14 29 -41 51 -44 37 -46 37 -59 19 -8 -10 -28 -36 -45 -58 -17 -21
-31 -42 -31 -46 0 -4 32 -24 70 -44 39 -21 70 -41 70 -45 0 -5 -12 -16 -26
-26 -28 -18 -54 -14 -54 8 0 13 -39 48 -77 71 -8 4 -29 -18 -60 -64 l-47 -71
30 -24 c29 -25 86 -55 137 -74 34 -13 28 -26 -20 -46 -49 -21 -63 -19 -60 7 2
18 -15 34 -80 78 -44 30 -89 60 -99 66 -16 10 -12 18 43 85 63 77 173 241 173
259 0 5 -4 10 -10 10 -5 0 -10 7 -10 15 0 26 22 16 145 -64z m-1903 -406 c56
-41 100 -112 130 -210 44 -147 75 -175 191 -175 85 0 158 -15 224 -44 53 -25
127 -75 120 -83 -2 -2 -44 6 -93 18 -91 21 -92 21 -315 3 -65 -5 -82 -3 -116
15 -50 25 -89 70 -119 138 -52 116 -147 183 -271 191 -144 9 -271 -36 -356
-127 -26 -27 -47 -47 -47 -42 0 20 75 130 110 162 110 100 284 121 466 55 35
-13 66 -21 69 -18 11 11 4 42 -23 96 -16 31 -26 56 -23 56 3 0 27 -16 53 -35z
m512 -1 c22 -22 20 -27 -5 -13 -31 16 -69 -3 -69 -36 0 -19 5 -25 23 -26 43
-2 73 3 162 27 120 32 151 31 258 -13 99 -40 124 -38 120 12 -2 26 -1 27 17
10 29 -26 25 -49 -15 -84 -42 -37 -49 -37 -140 -11 -84 24 -116 25 -218 5 -95
-18 -233 -19 -266 -2 -55 28 -53 82 6 122 43 29 103 33 127 9z m-205 -201 c55
-29 169 -31 287 -7 109 23 198 15 302 -27 l83 -33 57 62 c54 58 61 62 102 62
59 0 119 -31 192 -99 83 -76 118 -150 118 -246 0 -38 -5 -77 -10 -85 -8 -12
-10 -12 -10 5 -1 60 -107 182 -196 226 -101 48 -157 33 -134 -37 14 -43 9
-169 -7 -185 -10 -10 -15 -6 -23 17 -41 112 -129 187 -270 228 -65 19 -133 22
-331 16 -132 -4 -148 -2 -180 16 -51 30 -79 78 -79 135 0 79 10 87 34 28 17
-43 29 -57 65 -76z m-499 -74 c20 -5 44 -15 54 -22 16 -12 11 -13 -40 -9 -101
7 -194 -32 -194 -83 0 -46 65 -64 116 -30 24 16 25 16 18 -12 -14 -62 -52 -94
-126 -108 -73 -14 -126 46 -116 131 2 19 1 34 -3 34 -4 0 -29 -18 -57 -39 -85
-67 -165 -178 -223 -310 -42 -93 -50 -83 -23 28 56 234 224 398 439 431 51 8
93 5 155 -11z m-569 -75 c25 -23 24 -54 -3 -94 -41 -59 -76 -70 -220 -70
l-128 0 0 -25 c0 -14 8 -29 19 -35 28 -14 130 -12 185 4 l47 14 -35 -46 c-37
-52 -97 -92 -137 -92 -85 0 -177 141 -134 206 l17 26 132 -7 c111 -6 138 -5
163 9 39 20 59 69 37 91 -19 19 -24 19 -52 -1 -19 -13 -22 -13 -22 0 0 44 90
57 131 20z m734 -118 c3 -28 2 -64 -3 -80 -8 -28 -21 -36 -201 -113 -11 -5
-13 2 -7 37 15 93 74 183 145 220 32 17 37 17 48 3 6 -8 15 -38 18 -67z m887
55 c68 -43 118 -125 133 -220 l7 -44 -33 20 c-19 11 -65 33 -104 48 -38 15
-73 33 -77 39 -18 27 0 186 21 186 4 0 28 -13 53 -29z m752 -28 c-16 -39 -24
-78 -24 -118 0 -77 13 -101 29 -53 31 94 129 168 222 168 50 0 158 -30 199
-56 l25 -15 -25 6 c-14 4 -56 9 -95 11 -60 5 -76 2 -114 -18 -51 -27 -81 -74
-81 -130 0 -21 -4 -38 -8 -38 -15 0 -100 -88 -147 -150 l-45 -62 -12 29 c-7
17 -12 79 -12 158 -1 112 2 138 22 185 18 47 76 140 87 140 1 0 -8 -26 -21
-57z m-2106 -108 c39 -32 70 -100 78 -168 l6 -55 -60 -32 c-33 -17 -95 -60
-139 -95 l-78 -63 -3 53 c-4 66 20 169 54 238 28 56 93 147 105 147 4 0 21
-11 37 -25z m1811 -10 c38 -44 83 -132 105 -203 17 -57 33 -202 22 -202 -3 0
-37 26 -75 58 -37 31 -99 75 -136 97 l-67 39 5 56 c3 31 13 72 22 91 18 35 73
99 86 99 4 0 21 -16 38 -35z m-933 -6 c118 -22 218 -93 268 -192 28 -57 56
-157 55 -197 0 -22 -2 -21 -14 11 -49 135 -134 223 -234 244 l-33 7 8 -53 c19
-121 2 -189 -66 -263 -60 -65 -116 -83 -288 -94 -180 -12 -199 -22 -307 -163
-131 -171 -182 -209 -280 -209 l-50 1 62 30 c76 36 135 101 163 178 35 93 70
148 131 206 66 63 132 97 234 120 126 28 172 55 210 120 45 77 41 162 -10 224
-23 27 -24 30 -8 34 33 9 99 7 159 -4z m1682 -38 c44 -23 83 -62 108 -111 26
-49 24 -174 -4 -325 -29 -153 -38 -320 -20 -355 20 -38 59 -38 97 0 36 37 38
53 10 99 l-20 33 31 -22 c16 -12 35 -30 40 -40 41 -77 -50 -210 -145 -210 -59
0 -134 68 -156 140 -11 37 -9 51 40 201 63 197 79 289 62 365 -14 62 -50 111
-97 130 -35 15 -58 11 -87 -15 -17 -14 -20 -14 -33 4 -8 10 -14 33 -14 49 1
81 90 107 188 57z m-2090 -50 c-519 -289 -923 -746 -1008 -1139 -10 -48 -22
-117 -25 -154 -4 -38 -10 -68 -14 -68 -22 0 -104 65 -128 101 -45 68 -39 122
26 244 233 439 585 782 1005 981 90 42 219 93 241 94 5 0 -38 -27 -97 -59z
m800 25 c493 -190 912 -574 1161 -1063 45 -88 53 -151 27 -202 -24 -45 -128
-132 -143 -118 -2 3 -9 41 -14 84 -30 248 -139 476 -348 725 -180 214 -398
385 -747 585 -55 31 -37 28 64 -11z m-2008 -48 c50 -26 90 -84 90 -133 l0 -30
-19 31 c-35 57 -77 79 -154 79 -67 0 -69 -1 -107 -41 -48 -52 -64 -107 -57
-197 6 -67 42 -164 81 -212 19 -25 20 -18 6 92 -7 53 -7 96 -1 125 17 76 91
115 125 66 20 -28 20 -70 1 -173 -27 -150 -16 -296 28 -386 l23 -47 -33 -38
c-55 -66 -95 -159 -101 -235 -4 -57 -1 -75 21 -120 13 -30 48 -81 77 -114 67
-78 125 -176 158 -267 23 -63 27 -89 27 -188 0 -109 -2 -119 -32 -183 -39 -81
-123 -174 -190 -207 -90 -45 -197 -26 -264 47 -95 101 -96 259 -3 343 24 22
26 22 20 5 -21 -53 -28 -93 -23 -132 11 -97 102 -174 181 -152 81 22 166 138
181 249 11 78 -16 122 -168 278 -141 146 -186 207 -217 296 -45 127 -17 237
94 366 40 45 56 72 56 92 0 40 -21 44 -100 17 -60 -20 -72 -21 -109 -10 -23 6
-57 28 -76 47 -30 29 -35 42 -35 79 0 59 38 103 95 112 l40 6 -27 -26 c-39
-36 -37 -77 4 -112 52 -44 118 -23 155 49 19 36 13 77 -28 205 -59 186 -51
273 35 357 83 81 166 102 246 62z m269 -152 c67 -70 107 -146 117 -219 l7 -47
-95 -98 c-52 -54 -112 -124 -133 -155 -21 -31 -41 -57 -46 -57 -4 0 -18 26
-30 58 -31 80 -37 219 -14 315 24 100 101 267 124 267 4 0 36 -29 70 -64z
m2805 -28 c93 -193 108 -362 44 -510 l-20 -48 -50 71 c-27 39 -90 111 -139
160 -49 50 -89 96 -89 103 0 35 35 137 61 177 31 49 121 139 138 139 6 0 31
-42 55 -92z m-4944 -152 c0 -41 -2 -45 -29 -51 -41 -9 -104 -56 -130 -98 -12
-19 -26 -61 -32 -93 -23 -126 27 -217 147 -265 57 -23 72 -24 362 -27 l302 -3
0 -45 0 -44 -272 0 c-367 0 -459 21 -553 121 -72 77 -94 155 -76 269 22 137
103 232 231 271 46 14 50 11 50 -35z m7037 23 c73 -28 144 -94 174 -162 34
-79 39 -216 9 -285 -26 -60 -92 -125 -156 -153 -91 -41 -165 -49 -451 -49
l-273 0 0 44 0 45 303 3 c258 3 309 6 347 21 67 26 114 62 139 108 21 36 23
51 19 122 -3 58 -11 95 -27 125 -25 50 -86 97 -137 106 -26 5 -34 11 -30 22 3
9 6 29 6 45 0 35 3 35 77 8z m-3472 -184 c-13 -44 -23 -81 -21 -82 2 -2 27 8
57 21 78 36 209 57 325 54 l99 -3 -50 -18 c-28 -9 -61 -25 -74 -34 l-24 -16
59 -22 c328 -123 561 -374 463 -499 -26 -33 -84 -63 -137 -72 -38 -6 -39 -5
-45 25 -4 17 -4 45 0 61 3 17 1 30 -4 30 -20 0 -131 -74 -176 -118 -50 -49
-121 -142 -96 -126 8 4 33 21 56 36 41 28 113 58 139 58 8 0 14 -10 14 -24 0
-12 10 -38 23 -57 22 -32 27 -34 74 -33 61 2 139 27 188 59 19 14 35 21 35 17
0 -18 -65 -84 -112 -114 l-51 -33 46 -3 c26 -2 63 2 84 7 51 14 52 7 4 -23
-109 -69 -230 -90 -341 -61 -84 22 -225 23 -309 1 -35 -10 -66 -14 -69 -11 -4
3 0 25 9 49 l15 43 -55 -28 c-31 -16 -67 -29 -80 -31 -32 -4 -58 33 -81 113
l-19 64 0 -82 c-1 -94 -18 -123 -69 -123 -38 0 -58 24 -72 84 -36 161 -169
358 -314 464 -28 20 -82 54 -120 75 -68 36 -69 37 -31 32 110 -16 210 -39 302
-70 148 -50 227 -91 387 -205 l21 -15 -22 30 c-38 54 -157 161 -231 210 -88
56 -177 98 -292 137 l-85 28 120 -5 c107 -5 211 -20 270 -40 16 -6 15 -3 -5
14 -41 34 -118 72 -214 107 l-91 33 90 1 c172 1 302 45 385 130 25 25 46 46
47 45 2 -1 -8 -37 -22 -80z m-1040 -80 c14 -13 25 -33 25 -45 0 -28 -44 -70
-73 -70 -39 0 -70 32 -70 70 0 64 72 92 118 45z m2002 3 c29 -27 30 -71 1 -98
-66 -61 -158 31 -96 97 27 29 65 29 95 1z m-2109 -175 c57 -62 -34 -147 -105
-98 -29 21 -38 62 -18 92 32 48 83 51 123 6z m2235 10 c27 -25 22 -78 -9 -102
-15 -12 -37 -21 -49 -21 -33 0 -75 37 -75 66 0 73 78 106 133 57z m532 -163
c65 -48 167 -157 201 -216 75 -128 100 -276 70 -424 -10 -47 -25 -103 -35
-125 l-18 -40 -8 55 c-10 73 -52 205 -69 219 -8 7 -28 16 -45 21 -101 29 -311
-132 -311 -237 0 -27 6 -37 33 -53 60 -37 128 -20 190 49 l37 41 0 -37 c0 -89
-96 -177 -195 -177 -90 0 -156 61 -185 173 -10 37 -9 51 5 88 18 45 53 78 164
153 138 92 178 164 168 298 -7 87 -50 187 -114 262 l-38 45 50 -29 c28 -16 73
-46 100 -66z m-2878 -15 c40 -28 37 -89 -6 -122 -44 -34 -121 5 -121 60 0 63
74 99 127 62z m2448 -10 c46 -45 22 -111 -45 -121 -74 -12 -119 69 -68 123 30
32 81 31 113 -2z m-2229 -87 c16 -15 54 -38 84 -52 57 -26 160 -45 160 -30 0
5 -14 33 -30 62 -28 51 -28 53 -7 47 42 -12 208 -94 254 -127 26 -17 64 -47
85 -66 48 -44 51 -22 8 55 l-31 54 32 -17 c82 -42 166 -160 203 -283 23 -77
21 -89 -6 -64 -13 11 -39 30 -59 41 -41 25 -179 83 -179 76 0 -2 25 -42 57
-89 31 -47 54 -88 50 -91 -3 -3 -43 2 -89 11 -64 13 -102 16 -163 9 -159 -15
-224 -11 -290 19 -102 47 -144 102 -164 212 -6 32 -11 62 -11 66 0 4 23 -8 51
-27 53 -36 117 -57 282 -94 93 -21 127 -21 127 -2 0 19 -29 33 -111 56 -110
30 -151 48 -209 91 -60 44 -100 119 -100 184 l1 46 13 -30 c8 -16 26 -42 42
-57z m-1906 -113 l0 -45 -675 0 -675 0 0 45 0 45 675 0 675 0 0 -45z m7070 0
l0 -45 -675 0 -675 0 0 45 0 45 675 0 675 0 0 -45z m-5370 -44 c0 -44 45 -210
77 -288 16 -37 48 -97 72 -132 31 -45 37 -60 23 -52 -12 6 -44 11 -72 11 -60
0 -59 -2 17 -91 104 -122 228 -199 362 -225 114 -22 257 -2 364 53 l50 25 -22
-31 c-29 -41 -90 -87 -147 -113 -67 -29 -169 -27 -304 6 -204 50 -261 23 -195
-92 l24 -43 -32 22 c-223 155 -328 370 -314 639 6 101 30 218 63 300 19 47 34
52 34 11z m-1702 -178 l3 -43 -349 0 c-192 0 -373 -4 -401 -10 -82 -15 -143
-50 -164 -93 -17 -33 -23 -37 -58 -37 -35 0 -39 3 -39 25 0 61 72 137 158 168
81 29 162 35 512 33 l335 -1 3 -42z m6452 36 c89 -11 177 -44 219 -82 26 -24
60 -92 61 -119 0 -14 -8 -18 -40 -18 -35 0 -41 4 -55 34 -19 40 -86 79 -163
95 -33 7 -185 11 -402 11 l-350 0 0 45 0 45 323 0 c177 0 361 -5 407 -11z
m-2550 -185 c-7 -24 -28 -59 -46 -78 -38 -39 -41 -46 -19 -46 25 0 139 -55
201 -98 77 -51 193 -174 254 -267 l48 -74 12 28 c24 58 86 93 148 83 22 -3 21
-6 -17 -39 -49 -41 -71 -80 -71 -123 0 -65 51 -140 96 -140 82 0 175 204 160
350 l-6 55 21 -55 c29 -78 29 -208 0 -315 -31 -112 -108 -254 -208 -381 -47
-60 -103 -144 -123 -187 -38 -76 -68 -202 -56 -233 13 -33 -17 1 -35 40 -26
58 -24 139 8 259 38 140 40 315 5 427 -27 87 -82 194 -143 277 -47 65 -242
263 -276 282 -20 10 -23 9 -29 -16 -6 -24 2 -84 22 -150 5 -17 2 -23 -9 -23
-28 0 -132 -86 -186 -154 -51 -64 -53 -67 -36 -86 15 -16 55 -35 142 -65 8 -3
-4 -20 -29 -44 l-43 -39 21 -24 c33 -36 70 -117 83 -180 6 -32 16 -82 22 -112
12 -66 38 -101 83 -116 41 -13 98 6 115 38 17 31 13 84 -8 125 -28 54 -9 45
32 -15 45 -67 67 -143 67 -232 0 -89 -18 -157 -69 -260 -50 -103 -54 -123 -36
-183 29 -98 131 -203 197 -203 101 0 184 110 176 234 -1 31 -1 56 2 56 9 0 48
-63 66 -105 27 -63 24 -180 -6 -233 -42 -74 -118 -114 -220 -114 -153 -1 -268
112 -319 314 l-18 71 -7 -60 c-17 -150 42 -331 142 -435 48 -51 28 -48 -45 5
-126 93 -218 230 -244 365 -17 88 -6 199 30 316 17 54 31 113 31 130 l-1 31
-13 -36 c-18 -51 -49 -98 -89 -137 l-35 -34 8 44 c14 75 -11 164 -61 217 l-23
24 -15 -31 c-19 -41 -27 -40 -35 1 -12 64 -110 127 -195 127 -15 0 -54 7 -86
15 -51 13 -67 23 -107 66 l-47 52 -53 -23 c-98 -42 -203 -38 -325 11 -32 13
-33 13 -80 -38 -52 -56 -75 -65 -203 -83 -116 -16 -173 -57 -190 -135 l-6 -30
-17 33 c-10 17 -22 32 -27 32 -19 0 -68 -81 -80 -131 -7 -29 -9 -69 -5 -97 l7
-47 -32 30 c-40 38 -69 85 -86 138 l-13 42 0 -41 c-1 -23 10 -75 23 -116 70
-213 55 -376 -48 -531 -40 -60 -142 -159 -196 -191 l-33 -19 42 53 c80 101
119 204 128 331 3 47 2 104 -2 125 l-8 39 -14 -65 c-30 -143 -109 -259 -208
-306 -125 -59 -302 -3 -344 109 -16 41 -13 157 4 209 9 24 28 59 43 77 l27 33
-4 -58 c-4 -73 11 -125 51 -170 101 -114 220 -76 308 100 17 33 30 73 30 91 0
17 -18 68 -40 113 -67 140 -87 239 -70 347 12 76 49 162 81 191 l22 19 -17
-32 c-9 -18 -16 -52 -16 -77 0 -38 5 -48 32 -71 30 -25 37 -27 98 -22 36 3
103 19 149 36 144 53 220 105 308 214 70 88 180 170 139 105 -18 -31 -30 -98
-16 -98 5 0 10 4 10 9 0 11 68 57 97 65 20 6 21 4 16 -34 l-6 -40 44 20 c54
24 83 26 75 5 -4 -12 4 -15 39 -15 24 0 47 -5 50 -10 4 -6 18 -10 33 -10 15 1
39 -2 55 -6 17 -4 52 2 97 16 44 14 81 20 100 16 28 -5 30 -4 20 15 -10 18 -9
19 17 13 15 -4 45 -15 67 -25 l38 -18 -6 39 c-4 26 -2 40 4 40 17 0 73 -30 98
-53 l22 -20 0 29 c0 16 -7 41 -14 57 -36 67 60 -1 151 -108 76 -88 87 -98 149
-129 85 -42 87 -40 82 62 -5 99 -16 126 -91 220 -62 78 -98 102 -211 136 -127
39 -180 95 -231 245 l-22 64 -30 -44 c-40 -58 -79 -136 -87 -176 l-7 -31 40
14 c22 7 54 11 70 8 39 -8 87 -59 106 -113 18 -53 19 -62 2 -85 -12 -17 -15
-16 -44 13 -39 39 -50 35 -129 -40 -37 -35 -76 -62 -101 -69 -83 -25 -181 11
-215 80 -27 53 -24 184 7 306 31 122 31 149 0 249 -14 44 -25 95 -25 113 0 78
75 138 161 130 58 -6 82 -25 98 -77 15 -52 77 -106 142 -125 54 -16 174 -20
243 -8 l40 7 -61 18 c-66 20 -125 63 -148 108 l-15 29 32 -8 c67 -15 329 -7
398 11 90 25 197 79 256 131 55 49 64 43 44 -30z m-3902 -81 l3 -41 -223 -4
c-209 -3 -226 -4 -270 -26 -58 -29 -83 -75 -74 -135 8 -51 32 -92 64 -108 20
-11 23 -19 18 -48 -8 -51 -17 -54 -68 -22 -106 67 -133 253 -50 344 26 29 106
66 164 76 29 5 139 8 243 7 l190 -1 3 -42z m6146 37 c137 -22 215 -90 224
-195 6 -74 -3 -115 -37 -165 -25 -37 -91 -90 -113 -90 -3 0 -9 18 -13 40 -6
36 -4 43 19 61 38 30 56 71 56 130 0 44 -4 55 -33 84 -46 46 -103 55 -332 55
l-195 0 0 45 0 45 183 0 c100 0 209 -4 241 -10z m-4142 -55 c161 -74 375 -86
521 -30 14 6 17 2 16 -21 -2 -73 -59 -152 -127 -176 -52 -18 -195 -15 -267 6
-54 16 -131 54 -123 61 2 2 32 -3 68 -11 90 -19 205 -18 271 3 l54 17 -105 7
c-149 8 -264 55 -345 139 -35 36 -32 37 37 5z m-2152 -742 c119 -316 291 -618
507 -888 110 -139 346 -374 486 -485 l107 -85 0 -67 c0 -38 -3 -68 -8 -68 -15
0 -241 182 -342 277 -325 303 -564 626 -750 1017 -63 132 -130 295 -145 359
l-7 27 60 0 59 0 33 -87z m209 -1 c75 -194 206 -433 340 -620 117 -164 209
-269 390 -444 l161 -156 0 -66 c0 -36 -4 -66 -8 -66 -12 0 -140 107 -232 194
-280 263 -493 551 -669 902 -57 116 -141 313 -141 334 0 6 28 10 63 10 l62 -1
34 -87z m5761 83 c0 -13 -78 -202 -125 -302 -181 -384 -497 -791 -825 -1063
l-65 -53 -3 73 -3 72 136 130 c209 200 381 415 521 650 64 107 168 320 209
426 l28 72 64 0 c34 0 63 -2 63 -5z m200 -5 c0 -22 -114 -301 -170 -415 -165
-337 -360 -606 -644 -890 -142 -141 -360 -330 -397 -343 -5 -2 -9 28 -9 66 l0
70 53 42 c178 141 412 378 549 557 184 239 345 523 453 801 l47 122 59 0 c33
0 59 -4 59 -10z m-4763 -95 c32 -9 117 -106 159 -181 86 -154 97 -307 33 -459
-12 -28 -13 -22 -20 77 -4 58 -13 133 -19 165 -16 79 -72 194 -119 243 -31 33
-45 40 -76 40 -41 0 -99 -30 -110 -58 -6 -15 -8 -14 -16 7 -11 29 -3 74 20
115 17 30 85 68 111 61 8 -2 25 -6 37 -10z m1538 -440 c47 -29 93 -32 197 -9
86 18 126 13 168 -22 52 -44 34 -90 -44 -108 -16 -4 -61 -2 -102 4 -52 8 -100
8 -165 1 -83 -9 -97 -8 -135 8 -41 19 -74 61 -74 96 0 8 9 24 20 35 28 28 85
26 135 -5z m184 -299 c89 -66 190 -187 230 -277 l19 -41 6 64 c6 58 -7 236
-20 262 -13 27 114 -118 181 -206 131 -172 224 -349 300 -568 126 -360 366
-632 602 -680 32 -7 65 -15 73 -18 28 -10 -43 -20 -156 -21 -174 -2 -301 38
-425 134 l-55 43 -17 -88 c-24 -128 -71 -269 -132 -396 -57 -117 -168 -289
-235 -364 l-41 -45 24 50 c60 124 108 314 128 510 12 123 7 494 -9 585 l-8 45
-12 -63 c-16 -76 -69 -237 -104 -312 l-25 -55 5 115 c8 205 -21 420 -83 607
-57 171 -142 317 -244 417 l-51 50 -40 -87 c-22 -47 -50 -121 -61 -164 -25
-98 -47 -329 -33 -343 7 -7 46 28 118 106 60 63 112 112 116 107 10 -10 54
-227 74 -363 52 -352 44 -758 -20 -1101 -43 -235 -129 -510 -222 -714 -51
-114 -142 -279 -149 -272 -2 3 10 76 27 163 101 514 145 1065 122 1509 -7 125
-14 231 -17 235 -3 5 -63 -50 -132 -121 l-127 -130 -18 23 c-31 40 -77 173
-94 270 -13 72 -15 129 -11 248 6 143 13 195 61 415 13 57 -75 -127 -109 -228
-60 -182 -70 -248 -70 -482 0 -179 4 -227 23 -324 34 -166 105 -372 181 -527
36 -73 63 -134 59 -134 -11 0 -198 210 -259 292 -128 172 -219 348 -260 504
l-22 84 -38 -35 c-144 -130 -337 -185 -563 -160 -65 6 -83 25 -26 25 40 0 149
41 216 81 117 71 263 247 352 424 22 44 59 134 82 200 99 283 269 522 519 731
l35 29 -8 -25 c-13 -42 -18 -164 -9 -188 9 -23 11 -21 45 30 51 76 124 144
192 178 33 17 61 30 64 30 2 0 25 -15 51 -34z"/>
<path d="M5451 9560 c-17 -152 -17 -150 23 -150 52 0 87 35 93 92 9 79 -21
139 -78 153 l-26 6 -12 -101z"/>
<path d="M5425 9366 c-2 -6 -8 -56 -15 -111 -6 -55 -13 -112 -16 -127 -8 -38
42 -68 113 -68 65 0 98 15 122 54 48 80 24 167 -59 218 -52 32 -139 52 -145
34z"/>
<path d="M6445 9416 c-52 -20 -110 -83 -126 -137 -31 -106 -7 -220 67 -319
107 -141 234 -178 323 -92 84 81 112 258 59 372 -34 75 -79 124 -141 154 -67
33 -130 40 -182 22z"/>
<path d="M3277 9243 c-10 -3 -16 -10 -14 -16 3 -7 28 -72 57 -144 28 -73 56
-133 61 -133 26 0 131 63 141 85 25 55 -32 154 -114 196 -35 18 -89 23 -131
12z"/>
<path d="M7475 8795 c-50 -63 -91 -119 -93 -123 -4 -14 110 -82 139 -82 38 0
93 58 109 115 7 25 10 67 8 94 -5 49 -39 111 -61 111 -7 0 -53 -52 -102 -115z"/>
<path d="M4240 8044 c-90 -36 -116 -73 -108 -148 7 -62 48 -113 118 -148 88
-46 210 -34 240 21 25 48 -2 155 -53 209 -44 48 -152 83 -197 66z"/>
</g>
</svg>
